<?xml version="1.0" encoding="UTF-8"?>
<svg xmlns="http://www.w3.org/2000/svg" viewBox="0 0 1427 243">
  <defs>
    <style>
      .cls-1, .cls-2 {
        fill: none;
        stroke: #000;
        stroke-miterlimit: 10;
      }

      .cls-2 {
        stroke-width: .5px;
      }
    </style>
  </defs>
  <g id="bottle">
    <path class="cls-1" d="M250.94,217.22h20.23s4.44,0,4.44-11.15V88.81s.54-20.7-6.97-37.42v-9.75h1.04l.03-16.72s-.54-2.79-1.61-2.79h-13.46s-1.02,0-1.55,2.79v16.72h1.07v8.36s-6.97,11.15-6.97,37.62v121.94s.54,7.66,3.75,7.66Z"/>
    <polygon class="cls-1" points="253.09 34.59 269.69 34.59 269.68 39.65 253.09 39.65 253.09 34.59"/>
    <rect class="cls-1" x="247.19" y="116.24" width="28.43" height="20.59"/>
    <path class="cls-1" d="M293.94,216.22h20.23s4.44,0,4.44-8.13V122.61s.54-15.09-6.97-27.28v-7.11h1.04l.03-12.19s-.54-2.03-1.61-2.03h-13.46s-1.02,0-1.55,2.03v12.19h1.07v6.09s-6.97,8.13-6.97,27.43v88.89s.54,5.58,3.75,5.58Z"/>
    <polygon class="cls-1" points="296.09 83.09 312.69 83.09 312.68 86.78 296.09 86.78 296.09 83.09"/>
    <rect class="cls-1" x="290.19" y="142.61" width="28.43" height="15.01"/>
    <path class="cls-1" d="M458.87,216.49h42.89s9.42,0,9.42-9.1V111.7s1.14-16.89-14.78-30.54v-7.96h2.2l.07-13.65s-1.14-2.27-3.41-2.27h-28.55s-2.15,0-3.29,2.27v13.65h2.27v6.82s-14.78,9.1-14.78,30.7v99.51s1.14,6.25,7.96,6.25Z"/>
    <polygon class="cls-1" points="511.2 120.39 481.05 120.39 481.05 193.65 511.18 193.65 511.2 120.39"/>
    <polygon class="cls-1" points="463.42 67.46 498.63 67.46 498.61 71.59 463.42 71.59 463.42 67.46"/>
    <path class="cls-1" d="M1340.87,221.49h42.89s9.42,0,9.42-9.1V116.7s1.14-16.89-14.78-30.54v-7.96h2.2l.07-13.65s-1.14-2.27-3.41-2.27h-28.55s-2.15,0-3.29,2.27v13.65h2.27v6.82s-14.78,9.1-14.78,30.7v99.51s1.14,6.25,7.96,6.25Z"/>
    <polygon class="cls-1" points="1393.2 125.39 1363.05 125.39 1363.05 198.65 1393.18 198.65 1393.2 125.39"/>
    <polygon class="cls-1" points="1345.42 72.46 1380.63 72.46 1380.61 76.59 1345.42 76.59 1345.42 72.46"/>
    <path class="cls-1" d="M170.51,213.77h42.89s9.42,0,9.42-5.39v-56.73s1.14-17.79-14.18-17.79c-.41,0-.6-.57-.6-.98v-2.95c0-.61,.5-1.11,1.11-1.11h0c.61,0,1.1-.49,1.11-1.1l.06-6.5c0-.35-.16-.68-.44-.9-.53-.4-1.51-.95-2.96-.95h-28.55s-1.69,0-2.86,.93c-.27,.21-.43,.54-.43,.88v6.52c0,.61,.5,1.11,1.11,1.11h.06c.61,0,1.11,.5,1.11,1.11v2.19c0,.44-.26,.84-.67,1.01-2.88,1.23-14.12-3.52-14.12,17.93v58.78c0,.17,.04,.34,.12,.49,.42,.86,2.16,3.43,7.85,3.43Z"/>
    <polygon class="cls-1" points="175.05 125.41 210.27 125.41 210.25 127.86 175.05 127.86 175.05 125.41"/>
    <path class="cls-1" d="M1123.75,218.63h76.1l1.78-2.56c.38-.55,.59-1.21,.59-1.88v-57.81h-3.23l-.18-3.7h4.55v-12.51l-2.27-3.41h-79.09l-3.93,3.41v12.51h4.55v3.41h-3.41v60.27c0,.7,1.1,1.27,1.77,1.47l2.78,.81Z"/>
    <polygon class="cls-1" points="1122.61 152.67 1124.88 151.53 1196.53 151.53 1198.8 152.67 1198.8 153.81 1122.61 153.81 1122.61 152.67"/>
    <line class="cls-1" x1="1122.67" y1="155.43" x2="1198.98" y2="155.43"/>
    <line class="cls-1" x1="1122.61" y1="156.08" x2="1198.98" y2="156.08"/>
    <line class="cls-1" x1="1122.56" y1="154.57" x2="1198.84" y2="154.57"/>
    <line class="cls-1" x1="162.55" y1="174" x2="222.88" y2="174"/>
    <path class="cls-1" d="M911.42,73.65v7.42h0c-1.17,0-2.12,3.32-2.12,7.42v123.73c0,1.53,.68,2.77,1.1,3.19h0c1.14,1.15,2.4,1.76,3.68,1.76h42.4c1.84,0,3.49-2.21,4.16-5.58h0c.24-1.2,.37-2.63,.37-4.09V88.73c0-3.88-.9-7.03-2.01-7.03h0l-.11-8.05"/>
    <polygon class="cls-1" points="911.42 70.52 912.83 67 957.46 67 958.88 70.52 958.88 74.04 911.42 74.04 911.42 70.52"/>
    <line class="cls-1" x1="911.45" y1="79.07" x2="958.99" y2="79.07"/>
    <line class="cls-1" x1="911.42" y1="81.07" x2="958.99" y2="81.07"/>
    <line class="cls-1" x1="911.39" y1="76.4" x2="958.9" y2="76.4"/>
  </g>
  <g id="Layer_4" data-name="Layer 4">
    <g id="Layer_5" data-name="Layer 5">
      <ellipse class="cls-1" cx="77.5" cy="83" rx="44.5" ry="7"/>
      <ellipse class="cls-1" cx="78" cy="205.5" rx="44.5" ry="11"/>
      <path class="cls-1" d="M35,92.13v5.87c0,3.87,17.92,7,42.5,7s42.5-3.13,42.5-7v-5.87"/>
      <path class="cls-1" d="M21.5,195.5c0,3.87,2,24.68,57.25,25.37,50.75,.63,54.75-22.5,54.75-26.37"/>
      <path class="cls-1" d="M33,83v7c0,3.87,18.74,7,44.5,7s44.5-3.13,44.5-7v-7"/>
      <line class="cls-1" x1="41" y1="87" x2="41" y2="94"/>
      <line class="cls-1" x1="48.5" y1="88" x2="48.5" y2="95"/>
      <line class="cls-1" x1="57.5" y1="89.5" x2="57.5" y2="96.5"/>
      <line class="cls-1" x1="67.5" y1="97" x2="67.5" y2="90.5"/>
      <line class="cls-1" x1="77.5" y1="97.5" x2="77.5" y2="90.5"/>
      <line class="cls-1" x1="87.5" y1="96.5" x2="87.5" y2="90.5"/>
      <line class="cls-1" x1="97.5" y1="96.5" x2="97.5" y2="89.5"/>
      <line class="cls-1" x1="106.5" y1="95.5" x2="106.5" y2="88.5"/>
      <line class="cls-1" x1="114.5" y1="86.5" x2="114.5" y2="93.5"/>
      <path class="cls-1" d="M35.89,99.47s-14.39,10.03-14.39,28.03v68"/>
      <path class="cls-1" d="M119.11,98.97s14.39,10.03,14.39,28.03c0,18,0,68,0,68"/>
      <polygon class="cls-1" points="60.5 211.69 60.5 211.26 61.5 211.26 61.5 212 60.5 212 60.5 211.69"/>
      <polygon class="cls-1" points="71.5 198.69 71.5 198.26 72.5 198.26 72.5 199 71.5 199 71.5 198.69"/>
      <path class="cls-1" d="M50.5,209.5s-14.77-4.45-5-7.5"/>
      <path class="cls-1" d="M47.5,201.5s6-3,19-3"/>
      <line class="cls-1" x1="77.5" y1="198.5" x2="86.62" y2="198.5"/>
      <path class="cls-1" d="M97.5,199.5s29.14,2,8.07,10"/>
      <path class="cls-1" d="M66.16,212.5s18.35,2.51,33.35-1.24"/>
      <ellipse class="cls-1" cx="832.25" cy="68.82" rx="34.77" ry="7.82"/>
      <ellipse class="cls-1" cx="832.64" cy="205.7" rx="34.77" ry="12.29"/>
      <path class="cls-1" d="M799.05,79.02v6.56c0,4.32,14,7.82,33.2,7.82s33.2-3.5,33.2-7.82v-6.56"/>
      <path class="cls-1" d="M788.5,194.52c0,4.32,1.56,27.58,44.73,28.34,39.65,.71,42.77-25.14,42.77-29.46"/>
      <path class="cls-1" d="M797.48,68.82v7.82c0,4.32,14.64,7.82,34.77,7.82s34.77-3.5,34.77-7.82v-7.82"/>
      <line class="cls-1" x1="803.73" y1="73.29" x2="803.73" y2="81.11"/>
      <line class="cls-1" x1="809.59" y1="74.41" x2="809.59" y2="82.23"/>
      <line class="cls-1" x1="816.62" y1="76.08" x2="816.62" y2="83.91"/>
      <line class="cls-1" x1="824.44" y1="84.46" x2="824.44" y2="77.2"/>
      <line class="cls-1" x1="832.25" y1="85.02" x2="832.25" y2="77.2"/>
      <line class="cls-1" x1="840.06" y1="83.91" x2="840.06" y2="77.2"/>
      <line class="cls-1" x1="847.88" y1="83.91" x2="847.88" y2="76.08"/>
      <line class="cls-1" x1="854.91" y1="82.79" x2="854.91" y2="74.97"/>
      <line class="cls-1" x1="861.16" y1="72.73" x2="861.16" y2="80.55"/>
      <path class="cls-1" d="M799.75,87.22s-11.25,11.21-11.25,31.32v75.98"/>
      <path class="cls-1" d="M864.75,86.66s11.25,11.21,11.25,31.32v75.98"/>
      <polygon class="cls-1" points="818.97 212.61 818.97 212.13 819.75 212.13 819.75 212.96 818.97 212.96 818.97 212.61"/>
      <polygon class="cls-1" points="827.56 198.09 827.56 197.6 828.34 197.6 828.34 198.43 827.56 198.43 827.56 198.09"/>
      <path class="cls-1" d="M811.16,210.16s-11.54-4.97-3.91-8.38"/>
      <path class="cls-1" d="M808.81,201.23s4.69-3.35,14.84-3.35"/>
      <line class="cls-1" x1="832.25" y1="197.87" x2="839.38" y2="197.87"/>
      <path class="cls-1" d="M847.88,198.99s22.76,2.23,6.3,11.17"/>
      <path class="cls-1" d="M823.39,213.52s14.34,2.8,26.05-1.39"/>
      <ellipse class="cls-1" cx="382.25" cy="117.76" rx="37.93" ry="4.76"/>
      <path class="cls-1" d="M344.32,117.76v11.41c0,2.63,16.98,4.76,37.93,4.76s37.93-2.13,37.93-4.76v-11.41"/>
      <path class="cls-1" d="M346.1,130.61v9.97c0,2.63,15.2,3.8,36.15,3.8s36.15-2.13,36.15-4.76v-9.02"/>
      <ellipse class="cls-1" cx="381.8" cy="212.38" rx="22.31" ry="2.38"/>
      <path class="cls-1" d="M346.42,141.2s-11.92,7.94-11.92,13.64v3.94c0,3.4,.62,6.77,1.82,9.92,4.47,11.75,16.05,41.32,21.39,47.01s35.49,3.9,45.52,2.85c2.17-.23,3.44-2.06,4.63-4.01,11.18-18.29,20.13-46.49,21.85-52.07,.2-.65,.3-1.31,.3-1.99h0c0-4.24-1.5-8.32-4.21-11.43l-7.39-8.48"/>
      <line class="cls-1" x1="349.92" y1="131.97" x2="349.92" y2="128.17"/>
      <line class="cls-1" x1="356.92" y1="132.97" x2="356.92" y2="129.17"/>
      <line class="cls-1" x1="349.92" y1="124.36" x2="349.92" y2="120.56"/>
      <line class="cls-1" x1="356.92" y1="125.36" x2="356.92" y2="121.56"/>
      <line class="cls-1" x1="363.06" y1="126.31" x2="363.06" y2="121.56"/>
      <line class="cls-1" x1="363.06" y1="129.17" x2="363.06" y2="132.97"/>
      <line class="cls-1" x1="370.2" y1="133.92" x2="370.2" y2="130.12"/>
      <line class="cls-1" x1="370.2" y1="126.31" x2="370.2" y2="122.51"/>
      <line class="cls-1" x1="378.23" y1="122.51" x2="378.23" y2="127.27"/>
      <line class="cls-1" x1="378.23" y1="130.12" x2="378.23" y2="133.92"/>
      <line class="cls-1" x1="386.27" y1="133.92" x2="386.27" y2="130.12"/>
      <line class="cls-1" x1="386.27" y1="127.27" x2="386.27" y2="122.51"/>
      <line class="cls-1" x1="393.41" y1="122.51" x2="393.41" y2="127.27"/>
      <line class="cls-1" x1="393.41" y1="130.12" x2="393.41" y2="133.92"/>
      <line class="cls-1" x1="400.55" y1="121.56" x2="400.55" y2="126.31"/>
      <line class="cls-1" x1="400.55" y1="129.17" x2="400.55" y2="132.97"/>
      <line class="cls-1" x1="407.69" y1="129.17" x2="407.69" y2="132.97"/>
      <line class="cls-1" x1="415.69" y1="127.17" x2="415.69" y2="130.97"/>
      <line class="cls-1" x1="407.69" y1="125.36" x2="407.69" y2="121.56"/>
      <line class="cls-1" x1="415.69" y1="123.36" x2="415.69" y2="119.56"/>
      <ellipse class="cls-1" cx="702.01" cy="112.98" rx="51.78" ry="4.98"/>
      <ellipse class="cls-1" cx="702.01" cy="174.47" rx="51.78" ry="4.98"/>
      <path class="cls-1" d="M650.23,112.98v14.12c0,2.75,23.18,4.98,51.78,4.98s51.78-2.23,51.78-4.98v-14.12"/>
      <path class="cls-1" d="M650.23,123.34s18.41,4.58,51.78,3.76"/>
      <line class="cls-1" x1="706.34" y1="127.21" x2="708.09" y2="127.21"/>
      <path class="cls-1" d="M723.28,122.12c2.99,.06,11.97,.11,22.19-1.66"/>
      <line class="cls-1" x1="748.25" y1="119.63" x2="753.8" y2="117.97"/>
      <path class="cls-1" d="M738.08,127.94s8.32-.35,15.72-2.67"/>
      <path class="cls-1" d="M650.23,127.11s-2.03,8.49-12.07,13.53c-6.42,3.23-3.14,7.73,2.75,7.26,.09,0,.19,0,.28,0,3.5-.05,6.85-1.28,9.51-3.33,8.24-6.34,6.01-5,6.01-5"/>
      <line class="cls-1" x1="657.63" y1="137.52" x2="657.63" y2="136.04"/>
      <path class="cls-1" d="M652.69,143.03s3.09,9.83,8.64,9.83c10.17-2.49,16.64-7.48,21.27-7.48,4.13,0,6.79-1.33,11.26,2.54,1.97,1.7,4.51,2.86,7.24,2.9,9.95,.15,16.64-11.26,16.64-11.26"/>
      <path class="cls-1" d="M689.07,145.39s-2.77,0-2.77-4.98"/>
      <path class="cls-1" d="M712.75,145.64s5.87-2.74,11.9,.58c6.03,3.32,10.01,6.65,15.42,6.65,3.77,0,7.61-4.04,9.59-6.48,.82-1.01,.7-2.41-.28-3.29l-5.75-5.18"/>
      <path class="cls-1" d="M750.1,144.22s4.94,4.6,11.25,3.72c2.52-.35,4.29-.97,5.45-1.68,1.64-1.01,1.62-3.24,0-4.28-5.51-3.57-13.42-12.77-13.01-14.86"/>
      <path class="cls-1" d="M725.13,185.27s8.32,.83,14.79-.83"/>
      <line class="cls-1" x1="743.62" y1="183.61" x2="745.47" y2="183.61"/>
      <path class="cls-1" d="M665.95,209.36s4.62,4.15,15.72,4.15"/>
      <line class="cls-1" x1="685.26" y1="213.77" x2="687.27" y2="213.89"/>
      <path class="cls-1" d="M647.27,146.58c.19-.06,1.82,23.23,2.96,32.87,1.12,9.42,6.89,28.25,10.38,31.99,3.49,3.74,5.34,7.06,20.13,7.06h41.75c4.4,0,8.77-.8,12.74-2.51,4.2-1.81,8.59-4.87,10.24-9.95,3.51-10.79,7.85-27.75,9.25-33.23,1.35-5.26,2.09-25.11,2.09-25.11"/>
      <ellipse class="cls-1" cx="1041" cy="101" rx="43.5" ry="7.5"/>
      <ellipse class="cls-1" cx="1041.5" cy="207.5" rx="43" ry="9"/>
      <path class="cls-1" d="M1084.5,110c0,4.14-19.48,7.5-43.5,7.5s-43.5-3.36-43.5-7.5v-9"/>
      <path class="cls-1" d="M1083.5,117.5c0,4.14-18.48,7-42.5,7s-42.5-2.86-42.5-7v-5.89"/>
      <path class="cls-1" d="M985.5,199c0,12.96,24.24,21.89,55.75,21.89s55.75-8.94,55.75-21.89v-46.43c0-1.77-.18-3.53-.55-5.26-1.25-5.87-4.89-19.24-13.56-28.56"/>
      <path class="cls-1" d="M995.63,191.5v-33.79c0-3.55,.51-7.08,1.51-10.48l1.36-4.62"/>
      <line class="cls-1" x1="999.5" y1="139.5" x2="1000.5" y2="137.5"/>
      <path class="cls-1" d="M1092.5,177.5v17.85c0,2.06-.61,4.07-1.75,5.78l-.25,.38"/>
      <line class="cls-1" x1="1088.5" y1="203.5" x2="1086.5" y2="205.5"/>
      <line class="cls-1" x1="1001.5" y1="104.5" x2="1001.5" y2="113"/>
      <line class="cls-1" x1="1004.5" y1="105.5" x2="1004.5" y2="113.5"/>
      <line class="cls-1" x1="1008.5" y1="106.5" x2="1008.5" y2="114.5"/>
      <line class="cls-1" x1="1012.5" y1="106.5" x2="1012.5" y2="115.5"/>
      <line class="cls-1" x1="1016.5" y1="107.5" x2="1016.5" y2="111.5"/>
      <line class="cls-1" x1="1016.5" y1="113.5" x2="1016.5" y2="116.5"/>
      <line class="cls-1" x1="1021.5" y1="107.5" x2="1021.5" y2="116.5"/>
      <line class="cls-1" x1="1026.5" y1="107.5" x2="1026.5" y2="112.5"/>
      <line class="cls-1" x1="1026.5" y1="114.5" x2="1026.5" y2="117.5"/>
      <line class="cls-1" x1="1031.5" y1="108.5" x2="1031.5" y2="117.5"/>
      <line class="cls-1" x1="1036.5" y1="108.5" x2="1036.5" y2="112.5"/>
      <line class="cls-1" x1="1036.5" y1="114.5" x2="1036.5" y2="117.5"/>
      <line class="cls-1" x1="1041.5" y1="108.5" x2="1041.5" y2="117.5"/>
      <line class="cls-1" x1="1046.5" y1="108.5" x2="1046.5" y2="113.5"/>
      <line class="cls-1" x1="1046.5" y1="115.5" x2="1046.5" y2="117.5"/>
      <line class="cls-1" x1="1051.5" y1="108.5" x2="1051.5" y2="117.5"/>
      <line class="cls-1" x1="1056.5" y1="108.5" x2="1056.5" y2="112.5"/>
      <line class="cls-1" x1="1056.5" y1="113.5" x2="1056.5" y2="116.5"/>
      <line class="cls-1" x1="1060.5" y1="107.5" x2="1060.5" y2="116.5"/>
      <line class="cls-1" x1="1065.5" y1="107.5" x2="1065.5" y2="111.5"/>
      <line class="cls-1" x1="1065.5" y1="112.5" x2="1065.5" y2="116.5"/>
      <line class="cls-1" x1="1069.5" y1="106.5" x2="1069.5" y2="115.5"/>
      <line class="cls-1" x1="1073.5" y1="105.5" x2="1073.5" y2="109.5"/>
      <line class="cls-1" x1="1073.5" y1="111.5" x2="1073.5" y2="114.5"/>
      <line class="cls-1" x1="1077.5" y1="105" x2="1077.5" y2="113.5"/>
      <line class="cls-1" x1="1080.5" y1="104.5" x2="1080.5" y2="107.5"/>
      <line class="cls-1" x1="1080.5" y1="109.5" x2="1080.5" y2="112.5"/>
      <line class="cls-1" x1="1084.5" y1="100.5" x2="1084.5" y2="110.5"/>
      <line class="cls-1" x1="1083.5" y1="117.5" x2="1083.5" y2="111.5"/>
      <path class="cls-1" d="M1013.44,104.5s-22.02-4.98,3.06-6.52c24-1.48,24.5-1.23,24.5-1.23"/>
      <path class="cls-1" d="M1071.02,97.73s17.19,4.98-2.39,6.52c-18.74,1.48-19.13,1.23-19.13,1.23"/>
      <line class="cls-1" x1="1041" y1="106.5" x2="1045.94" y2="106.5"/>
      <path class="cls-1" d="M999.11,118.76s-13.61,17.74-13.61,29.74v50"/>
      <line class="cls-1" x1="1081.5" y1="124.5" x2="1085.5" y2="121.5"/>
      <line class="cls-1" x1="1083.5" y1="127.5" x2="1087.5" y2="124.5"/>
      <line class="cls-1" x1="1085.5" y1="131.5" x2="1089.5" y2="128.5"/>
      <line class="cls-1" x1="1087.5" y1="134.5" x2="1091.5" y2="131.5"/>
      <ellipse class="cls-1" cx="577.05" cy="124.81" rx="34.14" ry="5.89"/>
      <ellipse class="cls-1" cx="577.45" cy="208.38" rx="33.74" ry="7.06"/>
      <path class="cls-1" d="M611.19,131.87c0,3.25-15.28,5.89-34.14,5.89s-34.14-2.64-34.14-5.89v-7.06"/>
      <path class="cls-1" d="M610.41,137.76c0,3.25-14.5,5.49-33.35,5.49s-33.35-2.24-33.35-5.49v-4.63"/>
      <path class="cls-1" d="M533.5,201.71c0,10.17,19.02,17.18,43.75,17.18s43.75-7.01,43.75-17.18v-36.43c0-1.39-.14-2.77-.43-4.13-.98-4.61-3.84-15.1-10.64-22.41"/>
      <path class="cls-1" d="M617.47,184.84v14.01c0,1.61-.48,3.19-1.37,4.53l-.2,.3"/>
      <line class="cls-1" x1="614.33" y1="205.24" x2="612.76" y2="206.81"/>
      <line class="cls-2" x1="546.06" y1="127.55" x2="546.06" y2="134.22"/>
      <line class="cls-2" x1="548.41" y1="128.34" x2="548.41" y2="134.62"/>
      <line class="cls-2" x1="551.55" y1="129.12" x2="551.55" y2="135.4"/>
      <line class="cls-2" x1="554.69" y1="129.12" x2="554.69" y2="136.19"/>
      <line class="cls-2" x1="557.83" y1="129.91" x2="557.83" y2="133.05"/>
      <line class="cls-2" x1="557.83" y1="134.62" x2="557.83" y2="136.97"/>
      <line class="cls-2" x1="561.75" y1="129.91" x2="561.75" y2="136.97"/>
      <line class="cls-2" x1="565.67" y1="129.91" x2="565.67" y2="133.83"/>
      <line class="cls-2" x1="565.67" y1="135.4" x2="565.67" y2="137.76"/>
      <line class="cls-2" x1="569.6" y1="130.69" x2="569.6" y2="137.76"/>
      <line class="cls-2" x1="573.52" y1="130.69" x2="573.52" y2="133.83"/>
      <line class="cls-2" x1="573.52" y1="135.4" x2="573.52" y2="137.76"/>
      <line class="cls-2" x1="577.45" y1="130.69" x2="577.45" y2="137.76"/>
      <line class="cls-2" x1="581.37" y1="130.69" x2="581.37" y2="134.62"/>
      <line class="cls-2" x1="581.37" y1="136.19" x2="581.37" y2="137.76"/>
      <line class="cls-2" x1="585.29" y1="130.69" x2="585.29" y2="137.76"/>
      <line class="cls-2" x1="589.22" y1="130.69" x2="589.22" y2="133.83"/>
      <line class="cls-2" x1="589.22" y1="134.62" x2="589.22" y2="136.97"/>
      <line class="cls-2" x1="592.36" y1="129.91" x2="592.36" y2="136.97"/>
      <line class="cls-2" x1="596.28" y1="129.91" x2="596.28" y2="133.05"/>
      <line class="cls-2" x1="596.28" y1="133.83" x2="596.28" y2="136.97"/>
      <line class="cls-2" x1="599.42" y1="129.12" x2="599.42" y2="136.19"/>
      <line class="cls-2" x1="602.56" y1="128.34" x2="602.56" y2="131.48"/>
      <line class="cls-2" x1="602.56" y1="133.05" x2="602.56" y2="135.4"/>
      <line class="cls-2" x1="605.7" y1="127.95" x2="605.7" y2="134.62"/>
      <line class="cls-2" x1="608.05" y1="127.55" x2="608.05" y2="129.91"/>
      <line class="cls-2" x1="608.05" y1="131.48" x2="608.05" y2="133.83"/>
      <line class="cls-1" x1="611.19" y1="124.41" x2="611.19" y2="132.26"/>
      <line class="cls-1" x1="610.41" y1="137.76" x2="610.41" y2="133.05"/>
      <path class="cls-1" d="M544.18,138.74s-10.68,13.92-10.68,23.34v39.24"/>
      <line class="cls-1" x1="608.84" y1="143.25" x2="611.98" y2="140.89"/>
      <line class="cls-1" x1="610.41" y1="145.6" x2="613.54" y2="143.25"/>
      <line class="cls-1" x1="611.98" y1="148.74" x2="615.11" y2="146.39"/>
      <line class="cls-1" x1="613.54" y1="151.1" x2="616.68" y2="148.74"/>
      <ellipse class="cls-1" cx="1267" cy="82.25" rx="38.94" ry="4.25"/>
      <ellipse class="cls-1" cx="1267.28" cy="214.25" rx="27.22" ry="4.25"/>
      <path class="cls-1" d="M1300,95v5.22c0,3.44-14.13,6.23-33.5,6.23s-33.5-2.79-33.5-6.23v-5.64"/>
      <path class="cls-1" d="M1234.23,102.05l-2.73,2.73c-2.2,2.2-3.44,5.19-3.44,8.3v.35c0,1.49,.35,2.96,1.03,4.29h0c.9,1.77,2.58,3,4.55,3.3,5.49,.85,17.75,2.42,33.36,2.42s28.72-2.25,33.91-3.36c1.63-.35,3.01-1.42,3.75-2.91h0c.55-1.11,.84-2.33,.84-3.57v-1.59c0-1.89-.75-3.7-2.08-5.03l-4.82-4.82"/>
      <path class="cls-1" d="M1228.06,82v8.3c0,4.59,16.41,8.3,38.97,8.3s38.97-3.72,38.97-8.3v-8.3"/>
      <line class="cls-1" x1="1237.06" y1="84.69" x2="1237.06" y2="95.5"/>
      <line class="cls-1" x1="1243.62" y1="86.06" x2="1243.62" y2="97"/>
      <line class="cls-1" x1="1248.5" y1="86" x2="1248.5" y2="97.72"/>
      <line class="cls-1" x1="1258.5" y1="98.41" x2="1258.5" y2="86"/>
      <line class="cls-1" x1="1264.5" y1="98.41" x2="1264.5" y2="86"/>
      <line class="cls-1" x1="1269.5" y1="98.41" x2="1269.5" y2="86"/>
      <line class="cls-1" x1="1274.5" y1="98.41" x2="1274.5" y2="86"/>
      <line class="cls-1" x1="1280.5" y1="98.41" x2="1280.5" y2="86"/>
      <line class="cls-1" x1="1285.5" y1="98" x2="1285.5" y2="86"/>
      <line class="cls-1" x1="1291.5" y1="97" x2="1291.5" y2="86"/>
      <line class="cls-1" x1="1296.5" y1="96" x2="1296.5" y2="85"/>
      <line class="cls-1" x1="1301.5" y1="94" x2="1301.5" y2="84"/>
      <line class="cls-1" x1="1253.5" y1="98.41" x2="1253.5" y2="86"/>
      <line class="cls-1" x1="1231.5" y1="93.41" x2="1231.5" y2="84"/>
      <path class="cls-1" d="M1234.5,117.5s-3-1.74-1.5-5.87"/>
      <path class="cls-1" d="M1234.5,117.5s-3-2-1.5-5.87"/>
      <line class="cls-1" x1="1233.5" y1="109.5" x2="1234.5" y2="108.32"/>
      <path class="cls-1" d="M1233.5,121.5v68s33,9,66,0V120.5"/>
      <path class="cls-1" d="M1233.5,189.5s-5,3-5,8v10s0,9,13,13c10.83,3.33,16.81,3.19,18.5,3.06,.52-.04,1.04-.06,1.56-.06h14.84c4.72,0,9.44-.64,13.93-2.09,2.79-.9,5.73-2.16,8.18-3.91,6.9-4.93,7-9,7-13v-3.13c0-3.5-1.24-6.89-3.51-9.56-.9-1.06-1.81-1.97-2.49-2.31"/>
      <path class="cls-1" d="M1299.5,204.85c.04-.21,2.1-3.19,0-6.44"/>
      <line class="cls-1" x1="1298.5" y1="195.5" x2="1297.5" y2="194.5"/>
      <line class="cls-1" x1="1294.5" y1="170.21" x2="1294.5" y2="148.61"/>
      <line class="cls-1" x1="1294.5" y1="144.69" x2="1294.5" y2="141.79"/>
      <line class="cls-1" x1="1233.5" y1="127.5" x2="1237.5" y2="127.5"/>
      <line class="cls-1" x1="1233.5" y1="132.5" x2="1237.5" y2="132.5"/>
      <line class="cls-1" x1="1233.5" y1="136.5" x2="1237.5" y2="136.5"/>
      <line class="cls-1" x1="1233.5" y1="141.5" x2="1237.5" y2="141.5"/>
      <line class="cls-1" x1="1233.5" y1="145.5" x2="1237.5" y2="145.5"/>
    </g>
  </g>
</svg>