<?xml version="1.0" encoding="UTF-8"?>
<svg id="Layer_2" data-name="Layer 2" xmlns="http://www.w3.org/2000/svg" xmlns:xlink="http://www.w3.org/1999/xlink" viewBox="0 0 136.92 149.18">
  <defs>
    <style>
      .cls-1 {
        fill: #fbcb0b;
      }

      .cls-2, .cls-3 {
        fill: #fff;
      }

      .cls-3, .cls-4, .cls-5 {
        stroke: #231f20;
        stroke-linecap: round;
        stroke-linejoin: round;
      }

      .cls-3, .cls-5 {
        stroke-width: .3px;
      }

      .cls-4 {
        stroke-width: .2px;
      }

      .cls-4, .cls-5 {
        fill: none;
      }

      .cls-6 {
        fill: #83c441;
      }

      .cls-7 {
        fill: #d4d2d2;
      }

      .cls-8 {
        fill: #3d71b8;
      }

      .cls-9 {
        fill: url(#Blue_Ring_Vignette);
      }

      .cls-10 {
        fill: #f8b218;
      }

      .cls-11 {
        fill: #231f20;
      }

      .cls-12 {
        fill: #fddbcc;
      }

      .cls-13 {
        fill: #fcee21;
      }
    </style>
    <radialGradient id="Blue_Ring_Vignette" data-name="Blue Ring Vignette" cx="88.34" cy="24.04" fx="88.34" fy="24.04" r="3.43" gradientTransform="translate(16.15 4.88) scale(.83)" gradientUnits="userSpaceOnUse">
      <stop offset=".74" stop-color="#130c0e" stop-opacity="0"/>
      <stop offset=".83" stop-color="#130c0e" stop-opacity=".13"/>
      <stop offset=".87" stop-color="#130c0e" stop-opacity=".5"/>
      <stop offset=".89" stop-color="#1a2062"/>
      <stop offset=".92" stop-color="#b7c5cd"/>
      <stop offset=".93" stop-color="#242e77"/>
      <stop offset=".94" stop-color="#1c2062"/>
      <stop offset=".94" stop-color="#14134f"/>
      <stop offset=".94" stop-color="#100b44"/>
      <stop offset=".95" stop-color="#0f0941"/>
      <stop offset=".97" stop-color="#050331"/>
      <stop offset="1" stop-color="#000028"/>
    </radialGradient>
  </defs>
  <polygon class="cls-13" points="18.09 149.18 61.1 140.3 61.1 18.89 0 10.71 18.09 149.18"/>
  <polygon class="cls-10" points="90.02 6.82 136.92 10.71 136.92 136.78 88.29 147.47 90.02 6.82"/>
  <polygon class="cls-1" points="61.1 18.89 90.02 6.82 88.29 147.47 61.1 140.3 61.1 18.89"/>
  <g>
    <polygon class="cls-7" points="55.49 33.96 97.76 34.11 99.84 102.27 57.79 102.51 55.49 33.96"/>
    <path class="cls-11" d="M55.64,34.11l41.97,.15,2.07,67.86-41.74,.24-2.29-68.25m-.31-.3l2.31,68.85,42.34-.24-2.09-68.46-42.57-.15h0Z"/>
  </g>
  <g>
    <path class="cls-2" d="M55.45,33.66l-.97-4.72c1.24-.13,9.31-.92,18.42-.92,11.39,0,19.68,1.17,24.63,3.49l.2,2.29-42.29-.15Z"/>
    <path class="cls-11" d="M72.91,28.18c11.31,0,19.55,1.16,24.49,3.44l.18,2.04-42-.15-.91-4.43c1.67-.17,9.48-.9,18.24-.9h0m0-.3c-9.98,0-18.6,.93-18.6,.93l1.03,5,42.57,.15-.23-2.54c-5.91-2.8-15.88-3.54-24.77-3.54h0Z"/>
  </g>
  <g>
    <polygon class="cls-2" points="28.95 19.94 55.18 33.9 57.49 102.57 35.83 114.88 28.95 19.94"/>
    <path class="cls-11" d="M29.12,20.2l25.92,13.79,2.3,68.5-21.38,12.15L29.12,20.2m-.34-.52l6.92,95.45,21.95-12.47-2.31-68.85-26.55-14.12h0Z"/>
  </g>
  <g>
    <polygon class="cls-2" points="31.15 113.1 23.86 20.15 28.64 19.84 35.53 114.9 31.15 113.1"/>
    <path class="cls-11" d="M28.51,20l6.86,94.67-4.07-1.67L24.02,20.29l4.48-.29m.28-.32l-5.08,.33,7.31,93.2,4.69,1.93L28.78,19.68h0Z"/>
  </g>
  <g>
    <polygon class="cls-2" points="57.8 102.81 99.85 102.57 101.01 131.07 57.93 132.88 57.8 102.81"/>
    <path class="cls-11" d="M99.7,102.72l1.16,28.21-42.78,1.8-.13-29.77,41.75-.24m.29-.3l-42.34,.24,.14,30.38,43.39-1.82-1.18-28.8h0Z"/>
  </g>
  <g>
    <polygon class="cls-7" points="58.2 140.02 57.83 133.03 67.53 132.68 67.04 140.03 58.2 140.02"/>
    <path class="cls-11" d="M67.42,132.73l-.44,7.25-8.7-.02-.41-6.84,9.54-.4m.11-.1l-9.75,.41,.42,7.03,8.88,.02,.45-7.46h0Z"/>
  </g>
  <g>
    <polygon class="cls-7" points="92.41 131.58 100.66 131.29 101.32 138.99 93.12 139.53 92.41 131.58"/>
    <path class="cls-11" d="M100.57,131.34l.69,7.55-8.1,.59-.69-7.8,8.1-.34m.09-.1l-8.3,.35,.71,8,8.3-.6-.71-7.75h0Z"/>
  </g>
  <g>
    <polygon class="cls-7" points="89.87 124.41 89.57 110.27 92.46 109.35 92.73 124.58 89.87 124.41"/>
    <path class="cls-11" d="M92.35,109.44l.33,15.09-2.71-.16-.35-14.03,2.73-.9m.1-.14l-2.93,.96,.35,14.19,2.91,.18-.34-15.33h0Z"/>
  </g>
  <line class="cls-4" x1="65.63" y1="130.86" x2="57.96" y2="130.98"/>
  <line class="cls-4" x1="28.78" y1="37.07" x2="25.33" y2="37.55"/>
  <line class="cls-4" x1="65.43" y1="128.87" x2="57.84" y2="129"/>
  <line class="cls-4" x1="66.96" y1="126.17" x2="57.9" y2="126.46"/>
  <line class="cls-4" x1="67.32" y1="123.14" x2="57.74" y2="123.55"/>
  <line class="cls-4" x1="69.33" y1="119.76" x2="57.77" y2="120.37"/>
  <line class="cls-4" x1="67.84" y1="116.68" x2="57.72" y2="117.27"/>
  <line class="cls-4" x1="69.16" y1="113.7" x2="58.04" y2="114.28"/>
  <line class="cls-4" x1="70.09" y1="110.31" x2="57.56" y2="111.13"/>
  <line class="cls-4" x1="70.4" y1="107.77" x2="57.99" y2="108.42"/>
  <line class="cls-4" x1="28.02" y1="30.97" x2="24.76" y2="31.45"/>
  <line class="cls-4" x1="28.08" y1="32.94" x2="25.13" y2="33.37"/>
  <line class="cls-4" x1="28.37" y1="34.97" x2="25.13" y2="35.45"/>
  <g id="wiggle3">
    <path class="cls-6" d="M66.26,102.56c-1.38-.08-2.65-.62-3.58-1.5-.97-.92-1.46-2.14-1.38-3.44,.16-2.71,2.08-4.68,4.87-5.03,.23-.03,.45-.04,.67-.04,1.38,0,2.66,.55,3.6,1.55,.95,1,1.44,2.34,1.36,3.65-.16,2.61-2.57,4.82-5.26,4.82,0,0-.19,0-.29,0Z"/>
    <path class="cls-11" d="M66.84,92.6c1.37,0,2.64,.55,3.57,1.54,.94,.99,1.43,2.31,1.35,3.62-.16,2.59-2.54,4.77-5.21,4.77-.1,0-.19,0-.29,0-2.55-.15-5.09-2.02-4.92-4.89,.16-2.68,2.06-4.64,4.83-4.98,.22-.03,.45-.04,.67-.04m0-.1c-.22,0-.45,.01-.68,.04-2.77,.34-4.75,2.29-4.92,5.07s2.23,4.83,5.01,5c.1,0,.2,0,.29,0,2.67,0,5.15-2.18,5.31-4.86,.16-2.6-1.94-5.26-5.02-5.26h0Z"/>
  </g>
  <line class="cls-3" x1="57.03" y1="84.21" x2="99.37" y2="81.97"/>
  <polyline class="cls-3" points="56.39 63.84 67.08 62.85 98.74 59.92"/>
  <g id="wiggle1">
    <path class="cls-8" d="M62.19,52.42c2.13,1.19,4.31,1.75,6.39,1.75,3.91,0,6.21-2.03,6.23-2.05l-3.53,10.32-4.17,.36-4.92-10.38Z"/>
    <path class="cls-11" d="M74.58,52.37l-3.32,9.99-4.11,.38-4.78-10.09c2.12,1.04,4.21,1.56,6.22,1.56,3.17,0,5.28-1.32,6-1.85m.2-.29s-2.26,2.03-6.2,2.03c-1.81,0-3.97-.43-6.44-1.68l4.94,10.41,4.25-.39,3.45-10.37h0Z"/>
  </g>
  <g id="wiggle2">
    <polygon class="cls-13" points="80.02 73.06 89.1 73.66 90.05 82.46 81.08 82.89 80.02 73.06"/>
    <path class="cls-11" d="M80.08,73.17l8.92,.54,.98,8.66-8.86,.47-1.04-9.67m-.11-.11l1.07,9.88,9.06-.48-1-8.85-9.13-.55h0Z"/>
  </g>
  <g>
    <polygon class="cls-7" points="31.62 58.76 30.9 47.91 39.06 48.68 38.37 59.36 31.62 58.76"/>
    <path class="cls-11" d="M30.96,48.02l8,.7-.64,10.58-6.61-.59-.75-10.69m-.11-.11l.76,10.89,6.8,.6,.65-10.78-8.21-.72h0Z"/>
  </g>
  <g>
    <polygon class="cls-7" points="39.11 48.63 55.55 39.74 55.69 45.83 38.61 56.95 39.11 48.63"/>
    <path class="cls-11" d="M55.43,39.86l.2,5.92-16.96,11.07,.49-8.16,16.27-8.83m.09-.17l-16.46,8.93-.51,8.42,17.18-11.21-.21-6.13h0Z"/>
  </g>
  <g>
    <polygon class="cls-7" points="33.41 83.4 32.84 74.92 43.08 75.8 42.79 83.68 33.41 83.4"/>
    <path class="cls-11" d="M32.89,75.03l10.08,.81-.24,7.79-9.24-.28-.6-8.33m-.11-.11l.62,8.53,9.43,.28,.24-7.99-10.3-.83h0Z"/>
  </g>
  <g>
    <polygon class="cls-7" points="43.13 75.75 56.4 64.7 56.58 72.38 42.91 82.97 43.13 75.75"/>
    <path class="cls-11" d="M56.28,64.87l.25,7.46-13.56,10.53,.21-7.07,13.1-10.92m.09-.21l-13.29,11.08-.22,7.32,13.77-10.69-.26-7.71h0Z"/>
  </g>
  <g>
    <path class="cls-12" d="M93.48,29.76c-1.19-.34-7.29-1.97-16.02-1.97h-.04l.19-9.24,15.25,2.47,.62,8.74Z"/>
    <path class="cls-11" d="M77.75,18.72l14.96,2.42,.6,8.41c-1.58-.44-7.48-1.9-15.75-1.92l.19-8.92m-.29-.35l-.2,9.57c.07,0,.13,0,.2,0,9.8,0,16.19,2.02,16.19,2.02l-.65-9.08-15.54-2.52h0Z"/>
  </g>
  <line class="cls-5" x1="93.03" y1="20.86" x2="97.7" y2="13.46"/>
  <line class="cls-4" x1="77.4" y1="21.04" x2="82.64" y2="21.54"/>
  <line class="cls-4" x1="77.37" y1="22.6" x2="82.55" y2="23.1"/>
  <line class="cls-4" x1="77.34" y1="24.07" x2="82.89" y2="24.55"/>
  <line class="cls-4" x1="77.3" y1="25.82" x2="83.22" y2="26.18"/>
  <g>
    <path class="cls-9" d="M88.97,27.57c-1.56-.09-2.75-1.44-2.66-3,.09-1.49,1.33-2.67,2.83-2.67,.06,0,.12,0,.17,0,.76,.05,1.45,.38,1.95,.95,.5,.57,.75,1.3,.71,2.05-.09,1.49-1.33,2.67-2.83,2.67-.06,0-.12,0-.17,0Z"/>
    <path class="cls-11" d="M89.14,21.85v.1c.06,0,.11,0,.17,0,1.53,.09,2.71,1.41,2.61,2.95-.09,1.47-1.31,2.62-2.78,2.62-.06,0-.11,0-.17,0-1.53-.09-2.71-1.41-2.61-2.95,.09-1.47,1.31-2.62,2.78-2.62v-.1m0,0c-1.51,0-2.79,1.18-2.88,2.71-.1,1.59,1.12,2.96,2.71,3.05,.06,0,.12,0,.18,0,1.51,0,2.79-1.18,2.88-2.71,.1-1.59-1.12-2.96-2.71-3.05-.06,0-.12,0-.18,0h0Z"/>
  </g>
  <g id="wiggle4">
    <g>
      <path class="cls-11" d="M100.81,11.2c-.37-.02-.66-.28-.64-.58,.02-.28,.3-.5,.65-.5,.23,.01,.4,.08,.52,.2,.11,.11,.17,.25,.16,.39-.02,.28-.3,.5-.65,.5h-.05Z"/>
      <path class="cls-11" d="M100.82,9.96l.04,.3c.15,0,.28,.07,.38,.16,.05,.05,.13,.14,.12,.27-.01,.2-.23,.36-.54,.36,0,0,0,0,0,0-.28-.02-.51-.21-.5-.42,.01-.2,.23-.36,.5-.36v-.3m0,0c-.43,0-.78,.28-.8,.65-.02,.38,.33,.72,.78,.74,.02,0,.04,0,.06,0,.43,0,.78-.28,.8-.65,.02-.38-.33-.72-.78-.74-.02,0-.04,0-.06,0h0Z"/>
    </g>
    <g>
      <path class="cls-11" d="M107.59,7.56c-.33-.02-.59-.29-.57-.59,.02-.29,.28-.52,.6-.52,.37,.02,.63,.29,.61,.6-.02,.29-.28,.52-.6,.52h-.04Z"/>
      <path class="cls-11" d="M107.62,6.3l.03,.3c.13,0,.24,.06,.32,.15,.08,.08,.12,.18,.11,.29-.01,.21-.21,.38-.48,.38h0c-.13,0-.24-.06-.32-.15-.08-.08-.12-.18-.11-.29,.01-.21,.21-.38,.45-.38v-.3m0,0c-.4,0-.73,.29-.75,.66-.02,.39,.3,.73,.71,.75,.02,0,.03,0,.05,0,.4,0,.73-.29,.75-.66,.02-.39-.3-.73-.71-.75-.02,0-.03,0-.05,0h0Z"/>
    </g>
    <polyline class="cls-5" points="101.42 10.69 99.96 4.17 106.47 .15 108.11 6.84"/>
  </g>
  <g id="wiggle5">
    <g>
      <path class="cls-11" d="M110.76,17.92c-.36-.02-.64-.34-.62-.7,.02-.35,.31-.62,.66-.62,.4,.02,.68,.34,.66,.7-.02,.35-.31,.62-.66,.62h-.04Z"/>
      <path class="cls-11" d="M110.8,16.45l.03,.3c.14,0,.26,.07,.35,.17,.09,.1,.14,.23,.13,.37-.02,.27-.24,.48-.54,.48h0c-.14,0-.26-.07-.35-.17-.09-.1-.14-.23-.13-.37,.02-.27,.24-.48,.51-.48v-.3m0,0c-.43,0-.78,.33-.81,.76-.03,.45,.31,.83,.76,.86,.02,0,.03,0,.05,0,.43,0,.78-.33,.81-.76,.03-.45-.31-.83-.76-.86-.02,0-.03,0-.05,0h0Z"/>
    </g>
    <path class="cls-5" d="M111.56,17.3l-.84-8.07s3.51,3.2,2.72,4.48"/>
  </g>
</svg>