<?xml version="1.0" encoding="UTF-8"?>
<svg id="Pot1" xmlns="http://www.w3.org/2000/svg" viewBox="0 0 256 563.14">
  <defs>
    <style>
      .cls-1 {
        fill: #faac1a;
      }

      .cls-2 {
        fill: #008158;
      }

      .cls-3 {
        fill: #c62127;
      }

      .cls-4 {
        fill: #d5d5d5;
      }

      .cls-5 {
        fill: #f47f20;
      }

      .cls-6 {
        fill: #3d3e3d;
      }
    </style>
  </defs>
  <g id="Layer_3" data-name="Layer 3">
    <path class="cls-3" d="M76.38,66.24s.51,36.72,33.35,46.36c35.37,5.21,53.05-11.72,58.11-46.36l-6.38-.2s-11.56,15.04-38.08,15.04-42.95-14.84-42.95-14.84h-4.04Z"/>
    <path class="cls-3" d="M77.69,67.65s-14.79-1.26-11.09-15.92c5.25-11.87,16.21-8.34,16.21-8.34,0,0-11.38,10.61-.57,24.25h-4.55Z"/>
    <path class="cls-3" d="M165.01,67.65s14.09-1.26,10.57-15.92c-5-11.87-15.45-8.34-15.45-8.34,0,0,10.84,10.61,.54,24.25h4.34Z"/>
    <path id="swirlysoup" class="cls-1" d="M82.52,68.73s2.98-25.83,35.14-25.83,40.6,11.42,44.06,24.47c0,0-9.07,15-38.98,15s-40.21-13.63-40.21-13.63Z"/>
    <path class="cls-6" d="M83.37,69.88s-12.92-15.99-2.44-26.48,28.17-14.21,37.07-14.21,30.72,.76,43.21,14.21c9.46,15.35,.51,24.25,.51,24.25,0,0-6.38-23.18-34.81-23.18,0,0-42.19-3.07-43.55,25.4Z"/>
    <path class="cls-5" d="M100.92,68.98h7.23c1.38,0,2.35-1.35,1.93-2.66-.5-1.55-1.66-3.21-4.38-3.21-3.21,0-5,2.32-5.89,4.04-.43,.84,.18,1.84,1.12,1.84Z"/>
    <path class="cls-5" d="M141.03,60.53h3.23c3.67,0,4.04-5.54,.38-5.85-.17-.01-.34-.02-.53-.02-2.19,0-3.71,1.07-4.75,2.3-1.19,1.41-.19,3.57,1.66,3.57Z"/>
    <path class="cls-3" d="M120.25,74.6h14.67c1.22,0,2.24-.94,2.32-2.16,.15-2.22-.4-5.67-4.54-7.92-2.41-1.3-5.26-1.66-7.91-.95-5.6,1.51-6.51,6.25-6.54,9-.01,1.11,.88,2.02,2,2.02Z"/>
    <path class="cls-2" d="M96.07,57.04h36.02c1.4-1.77,1.39-4.28-.03-6.04l-1.81-2.24c-.83-1.02-2.07-1.62-3.39-1.62h-3.06c-.33,0-.66-.03-.98-.1-1.1-.23-2.04-.92-2.73-1.8l-1.84-2.36c-2.89-3.24-8.08-3.93-12.01-1.48h0c-2.24,1.02-4.1,2.72-5.32,4.86l-.23,.41c-.68,1.19-1.63,2.21-2.77,2.98l-1.65,1.11c-1.24,.84-2.08,2.16-2.3,3.64l-.03,.23c-.09,.6,.09,1.21,.49,1.67h0c.41,.47,1.01,.75,1.64,.75Z"/>
    <circle id="bubble3" class="cls-4" cx="101.58" cy="19.27" r="7.07"/>
    <circle id="bubble2" class="cls-4" cx="124.4" cy="15.1" r="8.08"/>
    <circle id="bubble1" class="cls-4" cx="133.91" cy="18.63" r="8.08"/>
  </g>
</svg>