<?xml version="1.0" encoding="UTF-8"?>
<svg xmlns="http://www.w3.org/2000/svg" viewBox="0 0 890 333.58">
  <defs>
    <style>
      .cls-1, .cls-2, .cls-3, .cls-4 {
        stroke: #231f20;
        stroke-miterlimit: 10;
      }

      .cls-1, .cls-2, .cls-4 {
        fill: none;
      }

      .cls-2 {
        stroke-width: 3px;
      }

      .cls-3 {
        fill: #231f20;
      }

      .cls-4 {
        stroke-width: 2px;
      }
    </style>
  </defs>
  <g id="Layer_3" data-name="Layer 3">
    <g id="Kettle">
      <polygon class="cls-3" points="529.49 61.28 522.95 64.24 526.22 48.58 535.08 42.82 550.17 44.57 555.56 50.29 559.07 58.58 551.25 58.4 549.64 53.53 545.05 49.72 537.78 48.58 531.85 51.86 528.34 57.23 529.49 61.28"/>
      <path class="cls-1" d="M529.49,61.28l21.77-2.87s18.73-2.38,31.8,16.76,20.21,36.34,20.35,56.69c0,0-61.85,11.91-94.87,12.31,0,0-6.2-27.63-4.45-40.02s2.78-27.19,18.87-39.89"/>
      <polyline class="cls-1" points="507.39 86.54 479.7 80.14 476.19 81.22 476.19 102.51 504.09 104.13"/>
      <path class="cls-1" d="M583.87,76.36s11.67-25.73,25.15-26.07,12.04,11.52,12.4,13.95,3.23,27.9,3.23,27.9c0,0,2.7,1.48-4.31,8.31-7.01,6.83-18.5,15.81-18.5,15.81l-3.63-12.86s12.79-6.81,13.32-11.26,1.44-21.16,.72-23.67-5.21-7.91-9.7-2.87-12.21,21.14-12.21,21.14l-6.47-10.37Z"/>
    </g>
    <g id="Glove">
      <path class="cls-1" d="M693.14,73.87l-.19,19.26c-1.29,48.13,13.55,71.72,13.55,71.72,0,0,28.99,42.73,67.26,1.8,11.02-12.67,.2-35.61-3.78-43.01-.68-1.26-.07-2.83,1.27-3.32h0c.94-.34,1.98-.1,2.68,.6,3.41,3.42,13.85,12.89,20.67,8.12,0,0,12.22-11.37-13.74-27.95s-27.19-26.05-29.37-29.46-2.18-10.14-5.49-12.88-14.87,.47-33.06,4.55-19.8,10.58-19.8,10.58l-3.09-13.01"/>
      <path class="cls-1" d="M702.29,56.44s40.92-9.34,43.5-7.56c3.33,2.29,.2,9.87,.2,9.87"/>
      <path d="M699.29,57.01l-12.04-15.28c-.44-.56-1.22-.67-1.79-.27l-11.07,7.85c-.77,.55-.77,1.72,0,2.26l13.61,9.47c.34,.24,.78,.3,1.17,.17h0c.93-.32,.29,1.29-2.06-2.19l-8.22-9.6c.78-1.02,2.1-2.05,2.65-2.54l3-1.21c.5-.42,1.49-.33,2.48,.9l10.99,11.23,1.29-.8Z"/>
      <line class="cls-1" x1="689.92" y1="61.42" x2="702.52" y2="56.48"/>
    </g>
  </g>
  <g id="Layer_1" data-name="Layer 1">
    <polyline class="cls-4" points="50.58 26.25 233.19 26.25 844.91 26.25"/>
    <path class="cls-3" d="M261.33,26.25s1.8,15.21-4.83,21.08-8.24-4.03-8.24-4.03l.14,.13c2.04,1.91,5.25,1.8,7.15-.25l3.89-4.19,1.89-12.74Z"/>
    <g id="Saucepan">
      <path class="cls-3" d="M260.04,38.84h0c-2.51-.66-6.88,.79-7.68,3.42l-17.88,64.84c-.33,1.09-.32,2.27,.03,3.35l.67,2.08c1.49,4.6,4.53,4.98,7.85,2.99,1.5-.9,3.38-.54,4.41,.94h0s16.21-71.25,16.21-71.25c.64-2.82-.97-5.66-3.61-6.36Z"/>
      <polygon class="cls-1" points="234.51 110.44 230.06 122.32 242 134.25 247.12 125.35 247.44 116.45 234.51 110.44"/>
      <path class="cls-1" d="M230.06,122.32s-7.76,3.04-19.47,11.69c-25.18,18.6-42.62,45.64-50.83,75.85-7.37,27.1-5.49,48.13-5.49,48.13,0,0,42.88-40.74,75.78-135.66Z"/>
      <polyline class="cls-1" points="163.39 198.36 155.58 190.54 168.67 164.12 181.19 164.12"/>
      <path class="cls-1" d="M156.23,189.23l-7.61-2.35s5.76-14.13,14.49-27.01l5.56,4.26"/>
      <path class="cls-3" d="M149.14,186.57c-.48,.61-1.39,.34-1.52-.44-.76-4.45-1.98-15.99,4.65-21.25,5.2-4.12,8.34-5.3,9.95-5.61,.64-.12,1.12,.58,.85,1.22-1.9,4.42-8.45,19.18-13.93,26.08Z"/>
      <path class="cls-1" d="M154.28,257.98s1.45,6.25,12.56,6c16.93-13.39,67.45-90.19,68.72-136.17"/>
      <path class="cls-1" d="M242,134.25l17.24,22.55v14.4s-9.47,51.35-50.59,95.87h-26.72l-15.09-3.09"/>
    </g>
    <g id="Pan">
      <path class="cls-3" d="M378.24,41.4h0c-1.95,.31-4.59,3.04-4.4,5.51l6.18,60.54c.08,1.03,.43,2.01,.99,2.8l1.07,1.51c2.37,3.34,4.61,2.61,6.36-.2,.79-1.27,2.22-1.62,3.36-.73h0s-9.2-65.34-9.2-65.34c-.36-2.59-2.32-4.41-4.37-4.09Z"/>
      <polygon class="cls-1" points="381.01 110.25 381.32 121.74 393.13 127.63 394.15 118.4 391.81 110.83 381.01 110.25"/>
      <path class="cls-1" d="M381.32,121.74s-4.56,5.23-10.27,16.52c-12.28,24.29-16.7,52.98-13.74,81.14,2.66,25.27,10.04,42.25,10.04,42.25,0,0,18.3-48.96,13.97-139.91Z"/>
      <path class="cls-1" d="M367.35,261.66l24.1-9.3,6.3-9.09c13.77-48.42,11.37-91.63,11.37-91.63l-16.31-24"/>
    </g>
    <path class="cls-2" d="M369.15,26.25v17.68s-1.26,13.04,9.85,5.26"/>
    <path class="cls-2" d="M540.99,26.25v17.68s1.26,13.04-9.85,5.26"/>
    <path class="cls-2" d="M678.97,26.25v17.68s-1.26,13.04,9.85,5.26"/>
  </g>
</svg>