<?xml version="1.0" encoding="UTF-8"?>
<svg id="a" data-name="Layer 1" xmlns="http://www.w3.org/2000/svg" viewBox="0 0 74 69">
  <defs>
    <style>
      .b {
        fill: none;
        stroke: #fff;
        stroke-miterlimit: 10;
        stroke-width: 1.8px;
      }

      .c {
        fill: #ce7438;
      }

      .d {
        fill: #472a16;
      }
    </style>
  </defs>
  <g>
    <rect class="d" x="5" y="4" width="69" height="65"/>
    <rect class="c" width="69" height="65"/>
  </g>
  <path class="b" d="M19.55,44.98s-9.51-17.29,6.05-24.2c4.15-1.58,9.68-3.6,13.15-4.86,1.97-.72,3.27-1.19,3.27-1.19l1.73-.86,.86-.86-.86,3.46,6.91,21.61c1.73,4.32-6.91,11.24-6.91,11.24-9.51,5.19-19.02-1.73-19.02-1.73"/>
  <path class="b" d="M38.56,21.64l.18-5.73-.18,5.73Z"/>
  <path class="b" d="M38.56,21.64s4.32,12.1,3.46,15.56c-.65,3.55-2.62,5.29-4.84,6.08-5.41,1.93-11.47-1.29-12.11-6.99-.72-6.41,6.18-11.92,10.38-14.65,1.8-1.17,3.1-1.82,3.1-1.82"/>
  <path class="b" d="M33.81,22.94l1.65,5.4s-4.24,4.2-3.64,8.15c.37,2.43,3.32,3.69,5.23,2.14,3.46-2.8-1.6-10.29-1.6-10.29"/>
</svg>