<?xml version="1.0" encoding="UTF-8"?>
<svg id="a" data-name="Layer 1" xmlns="http://www.w3.org/2000/svg" viewBox="0 0 74 69">
  <defs>
    <style>
      .b {
        fill: none;
        stroke: #fff;
        stroke-miterlimit: 10;
        stroke-width: 1.8px;
      }

      .c {
        fill: #ce7438;
      }

      .d {
        fill: #472a16;
      }
    </style>
  </defs>
  <g>
    <rect class="d" x="5" y="4" width="69" height="65"/>
    <rect class="c" width="69" height="65"/>
  </g>
  <path class="b" d="M27,20l1.59,5.83s2.55,8.29,3.7,13.5c.47,2.12,.28,4.35-.69,6.29-.5,1-1.16,1.88-1.94,2.59-2.9,2.64-7.6,2.32-10.1-.7-5.73-6.91,9.04-21.68,9.04-21.68"/>
  <path class="b" d="M48.18,31l.75,2.61s-5.58,4.7-2.24,9.71c1.49,2.24,3.25,1.12,3.93-.9,.44-1.31,.47-2.73,.14-4.08-.78-3.16-1.83-4.74-1.83-4.74"/>
  <path class="b" d="M38.98,14.3l.87,3.04s-6.49,5.47-2.61,11.3c1.74,2.61,3.78,1.3,4.58-1.04,.51-1.52,.55-3.18,.16-4.74-.91-3.67-2.13-5.51-2.13-5.51"/>
</svg>