<?xml version="1.0" encoding="UTF-8"?>
<svg id="Layer_2" data-name="Layer 2" xmlns="http://www.w3.org/2000/svg" viewBox="0 0 136.92 19.9">
  <defs>
    <style>
      .cls-1 {
        fill: #fbcb0b;
      }

      .cls-2, .cls-3 {
        fill: #fff;
      }

      .cls-3 {
        stroke: #231f20;
        stroke-linecap: round;
        stroke-linejoin: round;
        stroke-width: .3px;
      }

      .cls-4 {
        fill: #d4d2d2;
      }

      .cls-5 {
        fill: #3d71b8;
      }

      .cls-6 {
        fill: #f8b218;
      }

      .cls-7 {
        fill: #231f20;
      }

      .cls-8 {
        fill: #fcee21;
      }
    </style>
  </defs>
  <polygon class="cls-8" points="18.09 106.75 61.1 97.87 61.1 -23.54 0 -31.72 18.09 106.75"/>
  <polygon class="cls-6" points="90.02 -35.62 136.92 -31.72 136.92 94.35 88.29 105.04 90.02 -35.62"/>
  <polygon class="cls-1" points="61.1 -23.54 90.02 -35.62 88.29 105.04 61.1 97.87 61.1 -23.54"/>
  <g>
    <polygon class="cls-4" points="55.49 -8.48 97.76 -8.32 99.83 59.84 57.79 60.07 55.49 -8.48"/>
    <path class="cls-7" d="M55.64-8.33l41.97,.15,2.07,67.86-41.74,.24-2.29-68.25m-.31-.3l2.31,68.85,42.34-.24-2.09-68.46-42.57-.15h0Z"/>
  </g>
  <g>
    <polygon class="cls-2" points="28.95 -22.49 55.18 -8.54 57.49 60.14 35.83 72.45 28.95 -22.49"/>
    <path class="cls-7" d="M29.12-22.23l25.92,13.79,2.3,68.5-21.38,12.15L29.12-22.23m-.34-.52l6.92,95.45,21.95-12.47-2.31-68.85-26.55-14.12h0Z"/>
  </g>
  <g>
    <polygon class="cls-2" points="31.15 70.67 23.86 -22.28 28.64 -22.59 35.53 72.47 31.15 70.67"/>
    <path class="cls-7" d="M28.51-22.43l6.86,94.67-4.07-1.67L24.02-22.14l4.48-.29m.28-.32l-5.08,.33,7.31,93.2,4.69,1.93L28.78-22.75h0Z"/>
  </g>
  <polyline class="cls-3" points="56.39 21.4 67.08 20.42 98.74 17.49"/>
  <g id="wiggle1">
    <path class="cls-5" d="M62.19,9.99c2.13,1.19,4.31,1.75,6.39,1.75,3.91,0,6.21-2.03,6.23-2.05l-3.53,10.32-4.17,.36-4.92-10.38Z"/>
    <path class="cls-7" d="M74.58,9.94l-3.32,9.99-4.11,.38-4.78-10.09c2.12,1.04,4.21,1.56,6.22,1.56,3.17,0,5.28-1.32,6-1.85m.2-.29s-2.26,2.03-6.2,2.03c-1.81,0-3.97-.43-6.44-1.68l4.94,10.41,4.25-.39,3.45-10.37h0Z"/>
  </g>
  <g>
    <polygon class="cls-4" points="31.62 16.32 30.91 5.47 39.06 6.25 38.37 16.92 31.62 16.32"/>
    <path class="cls-7" d="M30.96,5.59l8,.7-.64,10.58-6.61-.59-.75-10.69m-.11-.11l.76,10.89,6.8,.6,.65-10.78-8.21-.72h0Z"/>
  </g>
  <g>
    <polygon class="cls-4" points="39.12 6.2 55.55 -2.69 55.69 3.4 38.62 14.52 39.12 6.2"/>
    <path class="cls-7" d="M55.43-2.57l.2,5.92-16.96,11.07,.49-8.16L55.43-2.57m.09-.17L39.07,6.2l-.51,8.42L55.74,3.4l-.21-6.13h0Z"/>
  </g>
</svg>