<?xml version="1.0" encoding="UTF-8"?>
<svg id="Layer_2" data-name="Layer 2" xmlns="http://www.w3.org/2000/svg" viewBox="0 0 136.92 19.9">
  <defs>
    <style>
      .cls-1 {
        fill: #fbcb0b;
      }

      .cls-2, .cls-3 {
        fill: #fff;
      }

      .cls-3 {
        stroke: #231f20;
        stroke-linecap: round;
        stroke-linejoin: round;
        stroke-width: .3px;
      }

      .cls-4 {
        fill: #d4d2d2;
      }

      .cls-5 {
        fill: #f8b218;
      }

      .cls-6 {
        fill: #231f20;
      }

      .cls-7 {
        fill: #fcee21;
      }
    </style>
  </defs>
  <polygon class="cls-7" points="18.09 85.53 61.1 76.65 61.1 -44.76 0 -52.94 18.09 85.53"/>
  <polygon class="cls-5" points="90.02 -56.84 136.92 -52.94 136.92 73.13 88.29 83.82 90.02 -56.84"/>
  <polygon class="cls-1" points="61.1 -44.76 90.02 -56.84 88.29 83.82 61.1 76.65 61.1 -44.76"/>
  <g>
    <polygon class="cls-4" points="55.49 -29.7 97.76 -29.54 99.83 38.62 57.79 38.85 55.49 -29.7"/>
    <path class="cls-6" d="M55.64-29.55l41.97,.15,2.07,67.86-41.74,.24-2.29-68.25m-.31-.3l2.31,68.85,42.34-.24-2.09-68.46-42.57-.15h0Z"/>
  </g>
  <g>
    <polygon class="cls-2" points="28.95 -43.71 55.18 -29.76 57.49 38.92 35.83 51.23 28.95 -43.71"/>
    <path class="cls-6" d="M29.12-43.45l25.92,13.79,2.3,68.5-21.38,12.15-6.84-94.43m-.34-.52l6.92,95.45,21.95-12.47-2.31-68.85-26.55-14.12h0Z"/>
  </g>
  <g>
    <polygon class="cls-2" points="31.15 49.45 23.86 -43.5 28.64 -43.81 35.53 51.25 31.15 49.45"/>
    <path class="cls-6" d="M28.51-43.65l6.86,94.67-4.07-1.67-7.27-92.71,4.48-.29m.28-.32l-5.08,.33,7.31,93.2,4.69,1.93-6.92-95.45h0Z"/>
  </g>
  <line class="cls-3" x1="57.03" y1="20.56" x2="99.37" y2="18.31"/>
  <polyline class="cls-3" points="56.39 .18 67.08 -.8 98.74 -3.73"/>
  <g id="wiggle2">
    <polygon class="cls-7" points="80.02 9.4 89.1 10 90.05 18.81 81.08 19.23 80.02 9.4"/>
    <path class="cls-6" d="M80.08,9.51l8.92,.54,.98,8.66-8.86,.47-1.04-9.67m-.11-.11l1.07,9.88,9.06-.48-1-8.85-9.13-.55h0Z"/>
  </g>
  <g>
    <polygon class="cls-4" points="33.41 19.75 32.84 11.26 43.08 12.14 42.79 20.03 33.41 19.75"/>
    <path class="cls-6" d="M32.89,11.38l10.08,.81-.24,7.79-9.24-.28-.6-8.33m-.11-.11l.62,8.53,9.43,.28,.24-7.99-10.3-.83h0Z"/>
  </g>
  <g>
    <polygon class="cls-4" points="43.13 12.1 56.4 1.05 56.58 8.72 42.91 19.31 43.13 12.1"/>
    <path class="cls-6" d="M56.28,1.22l.25,7.46-13.56,10.53,.21-7.07L56.28,1.22m.09-.21l-13.29,11.08-.22,7.32,13.77-10.69-.26-7.71h0Z"/>
  </g>
</svg>