<?xml version="1.0" encoding="UTF-8"?>
<svg id="Layer_2" data-name="Layer 2" xmlns="http://www.w3.org/2000/svg" viewBox="0 0 136.92 19.9">
  <defs>
    <style>
      .cls-1 {
        fill: #fbcb0b;
      }

      .cls-2 {
        fill: #fff;
      }

      .cls-3 {
        fill: none;
        stroke: #231f20;
        stroke-linecap: round;
        stroke-linejoin: round;
        stroke-width: .2px;
      }

      .cls-4 {
        fill: #d4d2d2;
      }

      .cls-5 {
        fill: #f8b218;
      }

      .cls-6 {
        fill: #231f20;
      }

      .cls-7 {
        fill: #fcee21;
      }
    </style>
  </defs>
  <polygon class="cls-7" points="18.19 43.02 61.2 34.15 61.2 -87.26 .09 -95.45 18.19 43.02"/>
  <polygon class="cls-5" points="90.12 -99.34 137.02 -95.45 137.02 30.62 88.38 41.31 90.12 -99.34"/>
  <polygon class="cls-1" points="61.2 -87.26 90.12 -99.34 88.38 41.31 61.2 34.15 61.2 -87.26"/>
  <g>
    <polygon class="cls-2" points="29.05 -86.22 55.28 -72.26 57.59 -3.59 35.93 8.72 29.05 -86.22"/>
    <path class="cls-6" d="M29.22-85.96l25.92,13.79L57.43-3.67l-21.38,12.15-6.84-94.43m-.34-.52L35.79,8.97,57.74-3.5l-2.31-68.85-26.55-14.12h0Z"/>
  </g>
  <g>
    <polygon class="cls-2" points="31.25 6.94 23.96 -86.01 28.74 -86.32 35.63 8.74 31.25 6.94"/>
    <path class="cls-6" d="M28.6-86.16L35.46,8.51l-4.07-1.67-7.27-92.71,4.48-.29m.28-.32l-5.08,.33L31.1,7.05l4.69,1.93-6.92-95.45h0Z"/>
  </g>
  <g>
    <polygon class="cls-2" points="57.89 -3.35 99.94 -3.59 101.11 24.91 58.03 26.72 57.89 -3.35"/>
    <path class="cls-6" d="M99.8-3.44l1.16,28.21-42.78,1.8-.13-29.77,41.75-.24m.29-.3l-42.34,.24,.14,30.38,43.39-1.82-1.18-28.8h0Z"/>
  </g>
  <g>
    <polygon class="cls-4" points="89.97 18.25 89.67 4.11 92.56 3.19 92.83 18.43 89.97 18.25"/>
    <path class="cls-6" d="M92.44,3.28l.33,15.09-2.71-.16-.35-14.03,2.73-.9m.1-.14l-2.93,.96,.35,14.19,2.91,.18-.34-15.33h0Z"/>
  </g>
  <line class="cls-3" x1="67.41" y1="16.98" x2="57.84" y2="17.39"/>
  <line class="cls-3" x1="69.43" y1="13.6" x2="57.86" y2="14.21"/>
  <line class="cls-3" x1="67.94" y1="10.52" x2="57.82" y2="11.11"/>
  <line class="cls-3" x1="69.26" y1="7.54" x2="58.13" y2="8.12"/>
  <line class="cls-3" x1="70.18" y1="4.15" x2="57.65" y2="4.97"/>
  <line class="cls-3" x1="70.5" y1="1.61" x2="58.08" y2="2.26"/>
</svg>