<?xml version="1.0" encoding="UTF-8"?>
<svg id="Layer_2" data-name="Layer 2" xmlns="http://www.w3.org/2000/svg" viewBox="0 0 136.92 19.9">
  <defs>
    <style>
      .cls-1 {
        fill: #fff;
      }

      .cls-2 {
        fill: #c5c5c5;
      }

      .cls-3 {
        fill: #e2e2e2;
      }

      .cls-4 {
        fill: #bababa;
      }

      .cls-5 {
        fill: #b0b0b0;
      }

      .cls-6 {
        fill: #dcdcdc;
      }
    </style>
  </defs>
  <polygon class="cls-3" points="18.09 64.12 61.1 55.24 61.1 -66.17 0 -74.35 18.09 64.12"/>
  <polygon class="cls-5" points="90.02 -78.25 136.92 -74.35 136.92 51.72 88.29 62.41 90.02 -78.25"/>
  <polygon class="cls-2" points="61.1 -66.17 90.02 -78.25 88.29 62.41 61.1 55.24 61.1 -66.17"/>
  <g>
    <polygon class="cls-6" points="55.49 -51.11 97.76 -50.95 99.83 17.21 57.79 17.44 55.49 -51.11"/>
    <path d="M55.64-50.96l41.97,.15,2.07,67.86-41.74,.24-2.29-68.25m-.31-.3l2.31,68.85,42.34-.24-2.09-68.46-42.57-.15h0Z"/>
  </g>
  <g>
    <polygon class="cls-1" points="28.95 -65.12 55.18 -51.17 57.49 17.51 35.83 29.82 28.95 -65.12"/>
    <path d="M29.12-64.86l25.92,13.79,2.3,68.5-21.38,12.15-6.84-94.43m-.34-.52l6.92,95.45,21.95-12.47-2.31-68.85-26.55-14.12h0Z"/>
  </g>
  <g>
    <polygon class="cls-1" points="31.15 28.04 23.86 -64.92 28.64 -65.22 35.53 29.84 31.15 28.04"/>
    <path d="M28.51-65.06l6.86,94.67-4.07-1.67-7.27-92.71,4.48-.29m.28-.32l-5.08,.33L31.01,28.14l4.69,1.93-6.92-95.45h0Z"/>
  </g>
  <g>
    <polygon class="cls-1" points="57.8 17.74 99.85 17.51 101.01 46.01 57.93 47.82 57.8 17.74"/>
    <path d="M99.7,17.66l1.16,28.21-42.78,1.8-.13-29.77,41.75-.24m.29-.3l-42.34,.24,.14,30.38,43.39-1.82-1.18-28.8h0Z"/>
  </g>
  <g id="wiggle3">
    <path class="cls-4" d="M66.26,17.5c-1.38-.08-2.65-.62-3.58-1.5-.97-.92-1.46-2.14-1.38-3.44,.16-2.71,2.08-4.68,4.87-5.03,.23-.03,.45-.04,.67-.04,1.38,0,2.66,.55,3.6,1.55,.95,1,1.44,2.33,1.36,3.65-.16,2.61-2.57,4.82-5.26,4.82,0,0-.19,0-.29,0Z"/>
    <path d="M66.84,7.53c1.37,0,2.64,.55,3.57,1.54,.94,.99,1.43,2.31,1.35,3.62-.16,2.59-2.54,4.77-5.21,4.77-.1,0-.19,0-.29,0-2.55-.15-5.09-2.02-4.92-4.89,.16-2.68,2.06-4.64,4.83-4.98,.22-.03,.45-.04,.67-.04m0-.1c-.22,0-.45,.01-.68,.04-2.77,.34-4.75,2.29-4.92,5.07s2.23,4.83,5.01,5c.1,0,.2,0,.29,0,2.67,0,5.15-2.18,5.31-4.86,.16-2.6-1.94-5.26-5.02-5.26h0Z"/>
  </g>
</svg>