<?xml version="1.0" encoding="UTF-8"?>
<svg id="Layer_2" data-name="Layer 2" xmlns="http://www.w3.org/2000/svg" xmlns:xlink="http://www.w3.org/1999/xlink" viewBox="0 0 136.92 35">
  <defs>
    <style>
      .cls-1 {
        fill: #fff;
      }

      .cls-2 {
        fill: #c5c5c5;
      }

      .cls-3 {
        fill: #e2e2e2;
      }

      .cls-4 {
        fill: #b0b0b0;
      }

      .cls-5 {
        stroke-width: .2px;
      }

      .cls-5, .cls-6 {
        fill: none;
        stroke: #000;
        stroke-linecap: round;
        stroke-linejoin: round;
      }

      .cls-7 {
        fill: url(#Blue_Ring_Vignette_2);
      }

      .cls-8 {
        fill: #dcdcdc;
      }

      .cls-6 {
        stroke-width: .3px;
      }

      .cls-9 {
        fill: #e3e3e3;
      }
    </style>
    <radialGradient id="Blue_Ring_Vignette_2" data-name="Blue Ring Vignette 2" cx="119.05" cy="14.09" fx="119.05" fy="14.09" r="3.43" gradientTransform="translate(-9.22 6.13) scale(.83)" gradientUnits="userSpaceOnUse">
      <stop offset=".74" stop-color="#000" stop-opacity="0"/>
      <stop offset=".86" stop-color="#000" stop-opacity=".31"/>
      <stop offset=".87" stop-color="#000" stop-opacity=".5"/>
      <stop offset=".89" stop-color="#000"/>
      <stop offset=".92" stop-color="#cfcfcf"/>
      <stop offset=".93" stop-color="#000"/>
      <stop offset=".93" stop-color="#000"/>
      <stop offset=".95" stop-color="#000"/>
      <stop offset="1" stop-color="#000"/>
    </radialGradient>
  </defs>
  <polygon class="cls-3" points="18.09 142.22 61.1 133.34 61.1 11.93 0 3.75 18.09 142.22"/>
  <polygon class="cls-4" points="90.02 -.15 136.92 3.75 136.92 129.82 88.29 140.51 90.02 -.15"/>
  <polygon class="cls-2" points="61.1 11.93 90.02 -.15 88.29 140.51 61.1 133.34 61.1 11.93"/>
  <g>
    <polygon class="cls-8" points="55.49 26.99 97.76 27.14 99.83 95.31 57.79 95.54 55.49 26.99"/>
    <path d="M55.64,27.14l41.97,.15,2.07,67.86-41.74,.24-2.29-68.25m-.31-.3l2.31,68.85,42.34-.24-2.09-68.46-42.57-.15h0Z"/>
  </g>
  <g>
    <path class="cls-1" d="M55.45,26.69l-.97-4.72c1.24-.13,9.31-.92,18.42-.92,11.39,0,19.68,1.17,24.63,3.49l.21,2.3-42.29-.15Z"/>
    <path d="M72.91,21.21c11.31,0,19.55,1.16,24.49,3.44l.18,2.04-42-.15-.91-4.43c1.67-.17,9.48-.9,18.24-.9h0m0-.3c-9.98,0-18.6,.93-18.6,.93l1.03,5,42.57,.15-.23-2.54c-5.91-2.8-15.88-3.54-24.77-3.54h0Z"/>
  </g>
  <g>
    <polygon class="cls-1" points="28.95 12.98 55.18 26.93 57.49 95.61 35.83 107.92 28.95 12.98"/>
    <path d="M29.12,13.24l25.92,13.79,2.3,68.5-21.38,12.15L29.12,13.24m-.34-.52l6.92,95.45,21.95-12.47-2.31-68.85L28.78,12.72h0Z"/>
  </g>
  <g>
    <polygon class="cls-1" points="31.15 106.14 23.86 13.18 28.64 12.88 35.53 107.94 31.15 106.14"/>
    <path d="M28.51,13.04l6.86,94.67-4.07-1.67L24.02,13.32l4.48-.29m.28-.32l-5.08,.33,7.31,93.2,4.69,1.93L28.78,12.72h0Z"/>
  </g>
  <line class="cls-5" x1="28.78" y1="30.11" x2="25.33" y2="30.59"/>
  <line class="cls-5" x1="28.02" y1="24.01" x2="24.76" y2="24.48"/>
  <line class="cls-5" x1="28.08" y1="25.97" x2="25.13" y2="26.41"/>
  <line class="cls-5" x1="28.37" y1="28.01" x2="25.13" y2="28.49"/>
  <g>
    <polygon class="cls-8" points="39.12 41.67 55.55 32.78 55.69 38.87 38.62 49.99 39.12 41.67"/>
    <path d="M55.43,32.9l.2,5.92-16.96,11.07,.49-8.16,16.27-8.83m.09-.17l-16.46,8.93-.51,8.42,17.18-11.21-.21-6.13h0Z"/>
  </g>
  <g>
    <path class="cls-9" d="M93.48,22.79c-1.19-.34-7.29-1.97-16.02-1.97h-.04l.19-9.24,15.25,2.47,.62,8.74Z"/>
    <path d="M77.75,11.75l14.96,2.42,.6,8.41c-1.58-.44-7.48-1.9-15.75-1.92l.19-8.92m-.29-.35l-.2,9.57c.07,0,.13,0,.2,0,9.8,0,16.19,2.02,16.19,2.02l-.65-9.08-15.54-2.52h0Z"/>
  </g>
  <line class="cls-6" x1="93.03" y1="13.89" x2="97.7" y2="6.5"/>
  <line class="cls-5" x1="77.4" y1="14.07" x2="82.64" y2="14.58"/>
  <line class="cls-5" x1="77.37" y1="15.64" x2="82.55" y2="16.14"/>
  <line class="cls-5" x1="77.34" y1="17.11" x2="82.89" y2="17.58"/>
  <line class="cls-5" x1="77.3" y1="18.86" x2="83.22" y2="19.22"/>
  <g>
    <path class="cls-7" d="M88.97,20.6c-.76-.05-1.45-.38-1.95-.95-.5-.57-.75-1.29-.71-2.05,.09-1.49,1.33-2.67,2.83-2.67,.06,0,.12,0,.17,0,.76,.05,1.45,.38,1.95,.95,.5,.57,.75,1.29,.71,2.05-.09,1.49-1.33,2.67-2.83,2.67-.06,0-.12,0-.17,0Z"/>
    <path d="M89.14,14.99h0c.06,0,.11,0,.17,0,1.53,.09,2.71,1.41,2.61,2.95-.09,1.47-1.31,2.62-2.78,2.62-.06,0-.11,0-.17,0-.74-.04-1.42-.38-1.92-.93-.49-.56-.74-1.27-.7-2.02,.09-1.47,1.31-2.62,2.78-2.62m0-.1c-1.51,0-2.79,1.18-2.88,2.71-.1,1.59,1.12,2.96,2.71,3.05,.06,0,.12,0,.18,0,1.51,0,2.79-1.18,2.88-2.71,.1-1.59-1.12-2.96-2.71-3.05-.06,0-.12,0-.18,0h0Z"/>
  </g>
  <g id="wiggle4">
    <g>
      <path d="M110.64,18.83c-.37-.02-.65-.28-.64-.58,.02-.28,.3-.5,.65-.5,.42,.02,.71,.29,.69,.58-.02,.28-.3,.5-.65,.5h-.05Z"/>
      <path d="M110.65,17.59l.04,.3c.28,.02,.51,.21,.5,.42-.01,.2-.23,.36-.54,.36h0c-.15,0-.28-.07-.38-.16-.05-.05-.13-.14-.12-.27,.01-.2,.23-.36,.5-.36v-.3m0,0c-.43,0-.78,.28-.8,.65-.02,.38,.33,.72,.78,.74,.02,0,.04,0,.06,0,.43,0,.78-.28,.8-.65,.02-.38-.33-.72-.78-.74-.02,0-.04,0-.06,0h0Z"/>
    </g>
    <g>
      <path d="M117.42,15.19c-.16,0-.31-.08-.42-.19-.11-.11-.16-.25-.15-.4,.02-.29,.28-.52,.6-.52,.21,.01,.36,.08,.46,.19,.11,.11,.16,.25,.15,.4-.02,.29-.28,.52-.6,.52h-.04Z"/>
      <path d="M117.45,13.93l.03,.3c.13,0,.24,.06,.32,.15,.08,.08,.12,.18,.11,.29-.01,.21-.21,.38-.48,.38h0c-.13,0-.24-.06-.32-.15-.08-.08-.12-.18-.11-.29,.01-.21,.21-.38,.45-.38v-.3m0,0c-.4,0-.73,.29-.75,.66-.02,.39,.3,.73,.71,.75,.02,0,.03,0,.05,0,.4,0,.73-.29,.75-.66,.02-.39-.3-.73-.71-.75-.02,0-.03,0-.05,0h0Z"/>
    </g>
    <polyline class="cls-6" points="111.25 18.32 109.79 11.8 116.3 7.78 117.94 14.47"/>
  </g>
  <g id="wiggle5">
    <g>
      <path d="M120.59,25.54c-.18-.01-.34-.09-.45-.22s-.18-.3-.17-.48c.02-.35,.31-.62,.66-.62,.4,.02,.68,.34,.66,.7-.02,.35-.31,.62-.66,.62h-.04Z"/>
      <path d="M120.63,24.07l.03,.3c.14,0,.26,.07,.35,.17,.09,.1,.14,.23,.13,.37-.02,.27-.24,.48-.54,.48h0c-.28-.02-.5-.26-.48-.54,.02-.27,.24-.48,.51-.48v-.3m0,0c-.43,0-.78,.33-.81,.76-.03,.45,.31,.83,.76,.86,.02,0,.03,0,.05,0,.43,0,.78-.33,.81-.76,.03-.45-.31-.83-.76-.86-.02,0-.03,0-.05,0h0Z"/>
    </g>
    <path class="cls-6" d="M121.39,24.93l-.84-8.07s3.51,3.2,2.72,4.48"/>
  </g>
</svg>